<mxfile host="app.diagrams.net" modified="2023-10-16T02:42:46.381Z" agent="Mozilla/5.0 (Windows NT 10.0; Win64; x64; rv:109.0) Gecko/20100101 Firefox/118.0" etag="ZNBLcmRCpq-SCPqY4Er5" version="22.0.4" type="github">
  <diagram id="C5RBs43oDa-KdzZeNtuy" name="Page-1">
    <mxGraphModel dx="880" dy="470" grid="1" gridSize="10" guides="1" tooltips="1" connect="1" arrows="1" fold="1" page="1" pageScale="1" pageWidth="827" pageHeight="1169" math="0" shadow="0">
      <root>
        <mxCell id="WIyWlLk6GJQsqaUBKTNV-0" />
        <mxCell id="WIyWlLk6GJQsqaUBKTNV-1" parent="WIyWlLk6GJQsqaUBKTNV-0" />
        <mxCell id="Kj3IXHOsZr3k2OyrrpIP-1" style="edgeStyle=orthogonalEdgeStyle;rounded=0;orthogonalLoop=1;jettySize=auto;html=1;exitX=0.5;exitY=1;exitDx=0;exitDy=0;exitPerimeter=0;" edge="1" parent="WIyWlLk6GJQsqaUBKTNV-1" source="Kj3IXHOsZr3k2OyrrpIP-0">
          <mxGeometry relative="1" as="geometry">
            <mxPoint x="435" y="110" as="targetPoint" />
          </mxGeometry>
        </mxCell>
        <mxCell id="Kj3IXHOsZr3k2OyrrpIP-0" value="start" style="strokeWidth=2;html=1;shape=mxgraph.flowchart.terminator;whiteSpace=wrap;" vertex="1" parent="WIyWlLk6GJQsqaUBKTNV-1">
          <mxGeometry x="390" y="30" width="90" height="50" as="geometry" />
        </mxCell>
        <mxCell id="Kj3IXHOsZr3k2OyrrpIP-3" style="edgeStyle=orthogonalEdgeStyle;rounded=0;orthogonalLoop=1;jettySize=auto;html=1;exitX=0.5;exitY=1;exitDx=0;exitDy=0;" edge="1" parent="WIyWlLk6GJQsqaUBKTNV-1" source="Kj3IXHOsZr3k2OyrrpIP-2">
          <mxGeometry relative="1" as="geometry">
            <mxPoint x="435" y="200" as="targetPoint" />
          </mxGeometry>
        </mxCell>
        <mxCell id="Kj3IXHOsZr3k2OyrrpIP-2" value="&lt;div&gt;vor&amp;nbsp; = Lo &lt;br&gt;&lt;/div&gt;&lt;div&gt;&amp;nbsp;&amp;nbsp;&amp;nbsp;&amp;nbsp;&amp;nbsp;&amp;nbsp;&amp;nbsp;&amp;nbsp; phi&amp;nbsp; = 3,14&lt;/div&gt;&lt;div&gt;d&lt;br&gt;&lt;/div&gt;" style="shape=parallelogram;html=1;strokeWidth=2;perimeter=parallelogramPerimeter;whiteSpace=wrap;rounded=1;arcSize=12;size=0.23;" vertex="1" parent="WIyWlLk6GJQsqaUBKTNV-1">
          <mxGeometry x="340" y="110" width="190" height="60" as="geometry" />
        </mxCell>
        <mxCell id="Kj3IXHOsZr3k2OyrrpIP-7" style="edgeStyle=orthogonalEdgeStyle;rounded=0;orthogonalLoop=1;jettySize=auto;html=1;exitX=0.5;exitY=1;exitDx=0;exitDy=0;" edge="1" parent="WIyWlLk6GJQsqaUBKTNV-1" source="Kj3IXHOsZr3k2OyrrpIP-4">
          <mxGeometry relative="1" as="geometry">
            <mxPoint x="435" y="290" as="targetPoint" />
          </mxGeometry>
        </mxCell>
        <mxCell id="Kj3IXHOsZr3k2OyrrpIP-4" value="Lo = phi x d " style="rounded=1;whiteSpace=wrap;html=1;absoluteArcSize=1;arcSize=14;strokeWidth=2;" vertex="1" parent="WIyWlLk6GJQsqaUBKTNV-1">
          <mxGeometry x="385" y="200" width="100" height="50" as="geometry" />
        </mxCell>
        <mxCell id="Kj3IXHOsZr3k2OyrrpIP-9" style="edgeStyle=orthogonalEdgeStyle;rounded=0;orthogonalLoop=1;jettySize=auto;html=1;exitX=0.5;exitY=1;exitDx=0;exitDy=0;" edge="1" parent="WIyWlLk6GJQsqaUBKTNV-1" source="Kj3IXHOsZr3k2OyrrpIP-8">
          <mxGeometry relative="1" as="geometry">
            <mxPoint x="430" y="380" as="targetPoint" />
          </mxGeometry>
        </mxCell>
        <mxCell id="Kj3IXHOsZr3k2OyrrpIP-8" value="&lt;div&gt;&lt;br&gt;&lt;/div&gt;&lt;div&gt;Lo &lt;br&gt;&lt;/div&gt;" style="html=1;strokeWidth=2;shape=manualInput;whiteSpace=wrap;rounded=1;size=26;arcSize=11;" vertex="1" parent="WIyWlLk6GJQsqaUBKTNV-1">
          <mxGeometry x="380" y="280" width="100" height="60" as="geometry" />
        </mxCell>
        <mxCell id="Kj3IXHOsZr3k2OyrrpIP-11" value="end " style="strokeWidth=2;html=1;shape=mxgraph.flowchart.start_2;whiteSpace=wrap;" vertex="1" parent="WIyWlLk6GJQsqaUBKTNV-1">
          <mxGeometry x="395" y="380" width="70" height="60" as="geometry" />
        </mxCell>
      </root>
    </mxGraphModel>
  </diagram>
</mxfile>
